<?xml version="1.0" encoding="utf-8"?>
<!-- Generator: Adobe Illustrator 25.0.1, SVG Export Plug-In . SVG Version: 6.00 Build 0)  -->
<svg version="1.1" id="Capa_1" xmlns="http://www.w3.org/2000/svg" xmlns:xlink="http://www.w3.org/1999/xlink" x="0px" y="0px"
	 viewBox="0 0 265.37 80.41" style="enable-background:new 0 0 265.37 80.41;" xml:space="preserve">
<style type="text/css">
	.st0{fill:#344193;}
</style>
<g>
	<path class="st0" d="M48.25,0H32.17v16.08h16.08V0z M32.16,48.25h16.08V32.17H32.16V48.25z M0,48.25h16.08V32.17H0V48.25z
		 M16.08,64.33h16.08V48.25H16.08V64.33z M32.16,16.08H16.08v16.08h16.08V16.08z M64.33,48.25h16.08V32.17H64.33V48.25z
		 M64.33,16.08H48.25v16.08h16.08V16.08z M48.25,64.33h16.08V48.25H48.25V64.33z M32.16,80.41h16.08V64.33H32.16V80.41z"/>
	<path d="M115.65,44.5h13.22c0,11.64-5.63,16.76-14.17,16.76c-9.24,0-14.93-7.28-14.93-19.36c0-12.08,5.88-19.61,15.56-19.61
		c7.34,0,12.08,3.73,13.16,10.25h4.3c-0.76-8.54-7.59-14.11-17.46-14.11c-11.76,0-19.93,9.05-19.93,23.47
		c0,14.36,7.21,23.15,18.85,23.15c6.58,0,12.33-3.04,14.61-7.65h0.13v6.9h3.86V40.77h-17.21V44.5z M167.07,43.24
		c0-7.78-4.24-11.89-12.02-11.89c-7.59,0-12.08,4.24-12.53,10.5h4.11c0.25-4.36,3.16-7.15,8.41-7.15c5.06,0,8.22,2.72,8.22,8.48
		v1.52c-3.48,0.32-6.77,0.63-9.87,1.07c-8.92,1.2-12.21,4.56-12.21,10.06c0,5.38,4.24,9.11,10.88,9.11c5.5,0,9.3-1.96,11.39-5.95
		h0.19c0,1.71,0.13,3.48,0.44,5.31h3.67c-0.44-2.21-0.7-4.87-0.7-7.91V43.24z M163.27,49.44c0,4.24-0.7,6.77-2.97,9.11
		c-1.77,1.96-4.56,3.1-7.91,3.1c-4.05,0-7.02-2.28-7.02-6.07c0-3.61,2.21-5.82,8.54-6.51c3.48-0.51,6.64-0.89,9.36-1.08V49.44z
		 M199.08,36.41h-0.13c-1.71-2.85-5.38-5.06-10.12-5.06c-8.29,0-13.54,6.58-13.54,16.83c-0.32,10.12,5.31,16.95,13.35,16.83
		c4.81,0,8.6-2.21,10.31-5.57h0.13v4.87H203V19.26h-3.92V36.41z M189.27,61.71c-5.88,0-9.87-5.25-9.87-13.54
		c0-8.29,3.92-13.54,10.06-13.54c6.01,0,9.81,5.38,9.81,13.54C199.27,56.33,195.53,61.71,189.27,61.71 M226.21,31.34
		c-9.11,0-14.68,6.45-14.68,16.89c0,10.44,5.57,16.89,14.68,16.89c9.11,0,14.68-6.45,14.68-16.89
		C240.89,37.8,235.32,31.34,226.21,31.34 M226.21,61.71c-6.58,0-10.56-5.13-10.56-13.47c0-8.35,3.98-13.47,10.56-13.47
		c6.64,0,10.63,5.12,10.63,13.47C236.84,56.59,232.85,61.71,226.21,61.71 M263.22,31.91c-4.24,0-7.72,1.83-9.81,5.31h-0.13v-5.06
		h-3.86V64.3h3.92V47.35c0-7.4,3.61-11.64,9.99-11.64c0.7,0,1.33,0.06,2.03,0.12V32.1C264.73,31.98,264.04,31.91,263.22,31.91"/>
</g>
</svg>
