<?xml version="1.0" encoding="utf-8"?>
<!-- Generator: Adobe Illustrator 25.0.1, SVG Export Plug-In . SVG Version: 6.00 Build 0)  -->
<svg version="1.1" id="Capa_1" xmlns="http://www.w3.org/2000/svg" xmlns:xlink="http://www.w3.org/1999/xlink" x="0px" y="0px"
	 viewBox="0 0 279.16 76.49" style="enable-background:new 0 0 279.16 76.49;" xml:space="preserve">
<style type="text/css">
	.st0{fill:#54565B;}
	.st1{fill:#C50F3C;}
</style>
<g>
	<path class="st0" d="M105.91,36.22L105.9,49.7c-0.91,0.35-2.86,0.86-6.45,0.86c-8.86,0-14.59-5.26-14.59-13.4
		c0-8.07,5.92-13.29,15.06-13.29c3.46,0,6.15,0.51,8.72,1.66l0.81,0.36l1.7-5.31l-0.62-0.3c-1.88-0.89-5.73-1.91-10.44-1.91
		c-14.98,0-21.81,9.84-21.81,18.97c0,5.3,1.97,10.18,5.39,13.37c3.79,3.57,8.81,5.3,15.36,5.3c5.71,0,10.38-1.4,12.67-2.23l0.52-0.2
		V36.23L105.91,36.22z"/>
	<rect x="123.26" y="18.74" class="st0" width="6.36" height="36.91"/>
	<polygon class="st0" points="148.1,50.07 148.1,18.74 141.72,18.74 141.72,55.64 164.92,55.64 164.92,50.07 	"/>
	<polygon class="st0" points="179.25,50.16 179.25,39.16 194.55,39.16 194.55,33.67 179.25,33.67 179.25,24.22 195.45,24.22 
		195.45,18.74 172.89,18.74 172.89,55.65 196.31,55.65 196.31,50.16 	"/>
	<path class="st0" d="M223.58,18.74h-6.3l-13.92,36.9h6.43l4.09-11.26h12.96l4.27,11.26h6.55L223.58,18.74z M220.31,26
		c0.35,1.12,3.86,10.42,4.89,13.11h-9.7C215.5,39.11,219.97,27.11,220.31,26"/>
	<path class="st0" d="M273.83,23.6c-3.64-3.43-9.32-5.17-16.85-5.17l-11.88,0.01v5.3l12.02,0.04c5.52,0,9.65,1.34,12.28,4
		c2.13,2.14,3.19,5.08,3.16,8.74c0,4.06-1.27,7.46-3.67,9.86c-2.8,2.79-7.19,4.26-12.67,4.23c-1.66,0-3.48-0.02-4.81-0.15V33.75
		h-6.31V55.5l0.72,0.08c2.75,0.28,5.76,0.41,9.59,0.41c7.82,0,14.28-2.04,18.15-5.75c3.62-3.54,5.6-8.49,5.6-13.92
		C279.16,31.12,277.38,26.85,273.83,23.6"/>
	<path class="st1" d="M57.47,0.21c0-0.12-0.08-0.21-0.2-0.21h0h-0.01h-0.02C9.53,4.54,3.45,37.46,19.05,47.97
		c-2.69,11.88-0.19,11.6-0.19,11.6c0.48-3.54,1.19-7.07,2.1-10.5C27.05,25.91,42.11,5.7,57.29,0.42V0.42
		C57.41,0.4,57.47,0.33,57.47,0.21"/>
	<path class="st1" d="M54.96,7.77c0-0.12-0.1-0.21-0.21-0.21c-0.1,0-0.16,0.06-0.2,0.14c-3.94,7.74-5.07,18.81-8.09,27.28
		c-3.43,9.7-9.54,16.23-18.97,15.6v23.57c0,0-25.2-11.4-25.2-29.72V10.08L22.88,8.2c0.12,0,0.21-0.09,0.21-0.22
		c0-0.1-0.09-0.2-0.21-0.2V7.77H0v36.65c0,20.62,27.48,32.07,27.48,32.07s27.49-11.64,27.49-32.07L54.96,7.77L54.96,7.77z"/>
</g>
</svg>
